<svg width="24" height="24" viewBox="0 0 24 24" fill="none" xmlns="http://www.w3.org/2000/svg">
<path d="M15 10.5C15 10.945 14.868 11.38 14.6208 11.75C14.3736 12.12 14.0222 12.4084 13.611 12.5787C13.1999 12.749 12.7475 12.7936 12.311 12.7068C11.8746 12.62 11.4737 12.4057 11.159 12.091C10.8443 11.7763 10.63 11.3754 10.5432 10.939C10.4564 10.5025 10.501 10.0501 10.6713 9.63896C10.8416 9.22783 11.13 8.87643 11.5 8.62919C11.87 8.38196 12.305 8.25 12.75 8.25C13.3465 8.25068 13.9184 8.48795 14.3402 8.90976C14.762 9.33157 14.9993 9.90347 15 10.5ZM21 3.75V20.25C20.9995 20.6477 20.8414 21.029 20.5602 21.3102C20.279 21.5914 19.8977 21.7495 19.5 21.75H6C5.60231 21.7495 5.22105 21.5914 4.93984 21.3102C4.65864 21.029 4.50045 20.6477 4.5 20.25V18.375H3C2.80109 18.375 2.61032 18.296 2.46967 18.1553C2.32902 18.0147 2.25 17.8239 2.25 17.625C2.25 17.4261 2.32902 17.2353 2.46967 17.0947C2.61032 16.954 2.80109 16.875 3 16.875H4.5V14.625H3C2.80109 14.625 2.61032 14.546 2.46967 14.4053C2.32902 14.2647 2.25 14.0739 2.25 13.875C2.25 13.6761 2.32902 13.4853 2.46967 13.3447C2.61032 13.204 2.80109 13.125 3 13.125H4.5V10.875H3C2.80109 10.875 2.61032 10.796 2.46967 10.6553C2.32902 10.5147 2.25 10.3239 2.25 10.125C2.25 9.92609 2.32902 9.73532 2.46967 9.59467C2.61032 9.45402 2.80109 9.375 3 9.375H4.5V7.125H3C2.80109 7.125 2.61032 7.04598 2.46967 6.90533C2.32902 6.76468 2.25 6.57391 2.25 6.375C2.25 6.17609 2.32902 5.98532 2.46967 5.84467C2.61032 5.70402 2.80109 5.625 3 5.625H4.5V3.75C4.50045 3.35231 4.65864 2.97105 4.93984 2.68984C5.22105 2.40864 5.60231 2.25045 6 2.25H19.5C19.8977 2.25045 20.279 2.40864 20.5602 2.68984C20.8414 2.97105 20.9995 3.35231 21 3.75ZM17.8497 15.2992C17.185 14.4086 16.2985 13.7078 15.2785 13.2666C15.8369 12.7568 16.2282 12.09 16.4009 11.3538C16.5736 10.6175 16.5197 9.84632 16.2463 9.1413C15.9728 8.43628 15.4926 7.83039 14.8687 7.40316C14.2447 6.97593 13.5062 6.74731 12.75 6.7473C11.9938 6.7473 11.2553 6.97592 10.6313 7.40315C10.0074 7.83038 9.5272 8.43626 9.25376 9.14128C8.98032 9.84631 8.92641 10.6175 9.09911 11.3537C9.27181 12.0899 9.66305 12.7567 10.2215 13.2666C9.20139 13.7078 8.31477 14.4087 7.65006 15.2994C7.53059 15.4584 7.4792 15.6584 7.50719 15.8553C7.53518 16.0523 7.64025 16.23 7.79929 16.3495C7.95833 16.469 8.15832 16.5203 8.35525 16.4924C8.55219 16.4644 8.72994 16.3593 8.8494 16.2003C9.30356 15.5947 9.89246 15.1033 10.5695 14.7648C11.2465 14.4263 11.993 14.25 12.7499 14.25C13.5068 14.25 14.2533 14.4262 14.9303 14.7647C15.6074 15.1031 16.1963 15.5946 16.6505 16.2001C16.7699 16.3591 16.9477 16.4642 17.1446 16.4921C17.3415 16.5201 17.5415 16.4687 17.7005 16.3493C17.8596 16.2298 17.9646 16.052 17.9926 15.8551C18.0206 15.6582 17.9692 15.4582 17.8497 15.2992H17.8497Z" fill="#575757"/>
</svg>
