<svg width="32" height="32" viewBox="0 0 32 32" fill="none" xmlns="http://www.w3.org/2000/svg">
<path d="M6.00292 16V10.4868L9.1549 15.53C9.2448 15.6739 9.3698 15.7924 9.51815 15.8747C9.6665 15.9569 9.83332 16 10.0029 16C10.1725 16 10.3393 15.9569 10.4877 15.8747C10.636 15.7924 10.761 15.6739 10.8509 15.53L14.0029 10.4868V16C13.7377 16 13.4834 16.1054 13.2958 16.2929C13.1083 16.4804 13.0029 16.7348 13.0029 17C13.0029 17.2652 13.1083 17.5196 13.2958 17.7071C13.4834 17.8947 13.7377 18 14.0029 18H17.0029C17.2681 18 17.5225 17.8947 17.71 17.7071C17.8976 17.5196 18.0029 17.2652 18.0029 17C18.0029 16.7348 17.8976 16.4804 17.71 16.2929C17.5225 16.1054 17.2681 16 17.0029 16H16.0029V8.00001H17.0029C17.2681 8.00001 17.5225 7.89465 17.71 7.70712C17.8976 7.51958 18.0029 7.26523 18.0029 7.00001C18.0029 6.73479 17.8976 6.48044 17.71 6.2929C17.5225 6.10537 17.2681 6.00001 17.0029 6.00001H15.0029C14.9979 6.00001 14.9931 6.00068 14.9882 6.00074C14.9688 6.00105 14.9496 6.00227 14.9304 6.00367C14.9157 6.00471 14.9009 6.00569 14.8864 6.00733C14.8704 6.00923 14.8546 6.01197 14.8387 6.01466C14.8215 6.01746 14.8043 6.02021 14.7874 6.02393C14.7745 6.02674 14.7618 6.03041 14.7491 6.03376C14.7302 6.03871 14.7114 6.04359 14.6929 6.04957C14.6811 6.05342 14.6697 6.05811 14.658 6.06239C14.6432 6.06782 14.6281 6.07252 14.6137 6.07862C14.6101 6.08009 14.6068 6.08204 14.6033 6.08362C14.5903 6.08924 14.5777 6.09589 14.5649 6.10206C14.5492 6.10975 14.5334 6.11713 14.5182 6.12556C14.5031 6.13398 14.4884 6.1435 14.4736 6.15272C14.4615 6.16022 14.4493 6.16736 14.4377 6.17536C14.4216 6.18641 14.4061 6.19855 14.3906 6.21058C14.3808 6.2182 14.3708 6.22547 14.3613 6.2334C14.3464 6.24585 14.3322 6.25934 14.318 6.27277C14.3107 6.27961 14.3029 6.28583 14.2958 6.29291C14.2936 6.29511 14.2917 6.29761 14.2895 6.29987C14.2773 6.31232 14.2657 6.32557 14.2541 6.33881C14.2466 6.3473 14.2385 6.35517 14.2313 6.3639C14.2283 6.36744 14.2259 6.37134 14.223 6.37495C14.2138 6.38648 14.2051 6.39857 14.1964 6.41059C14.1851 6.42609 14.1738 6.44171 14.1634 6.45789C14.1607 6.46204 14.1576 6.46577 14.1549 6.46998L10.0029 13.1132L5.85095 6.46998C5.84826 6.46577 5.84515 6.46204 5.84247 6.45789C5.83203 6.44172 5.8208 6.42609 5.80945 6.41059C5.80072 6.39856 5.79205 6.38648 5.78283 6.37495C5.77997 6.37134 5.77746 6.36744 5.7746 6.3639C5.76739 6.35517 5.75928 6.3473 5.75177 6.33881C5.74011 6.32563 5.72857 6.31232 5.71637 6.29981C5.71417 6.29761 5.71222 6.29511 5.71002 6.29291C5.703 6.28589 5.69519 6.27967 5.68799 6.27283C5.6737 6.25935 5.65949 6.24586 5.64453 6.23334C5.63513 6.22547 5.62524 6.21833 5.61554 6.21082C5.59991 6.19868 5.58435 6.18647 5.56811 6.17536C5.55652 6.16736 5.54431 6.16022 5.53235 6.15272C5.51752 6.1435 5.50287 6.13404 5.48761 6.12562C5.47229 6.11707 5.45636 6.10963 5.44055 6.10187C5.42798 6.09577 5.41553 6.08923 5.40271 6.08368C5.39911 6.08209 5.39575 6.08008 5.39215 6.07861C5.37756 6.07239 5.36224 6.06763 5.34729 6.06213C5.33587 6.05798 5.32458 6.05341 5.31305 6.04962C5.29449 6.04358 5.27539 6.03864 5.25635 6.03369C5.24377 6.0304 5.23126 6.02673 5.21856 6.02393C5.20141 6.0202 5.18402 6.0174 5.16656 6.01453C5.15094 6.01196 5.13544 6.00922 5.11969 6.00739C5.10492 6.00568 5.0899 6.0047 5.07495 6.00366C5.05597 6.00226 5.03705 6.0011 5.018 6.00073C5.01294 6.00067 5.00799 6 5.00293 6H3.00293C2.73771 6 2.48336 6.10536 2.29582 6.29289C2.10829 6.48043 2.00293 6.73478 2.00293 7C2.00293 7.26522 2.10829 7.51957 2.29582 7.70711C2.48336 7.89464 2.73771 8 3.00293 8H4.00293V16H3.00293C2.73771 16 2.48336 16.1054 2.29582 16.2929C2.10829 16.4804 2.00293 16.7348 2.00293 17C2.00293 17.2652 2.10829 17.5196 2.29582 17.7071C2.48336 17.8946 2.73771 18 3.00293 18H6.00293C6.26815 18 6.5225 17.8946 6.71004 17.7071C6.89757 17.5196 7.00293 17.2652 7.00293 17C7.00293 16.7348 6.89757 16.4804 6.71004 16.2929C6.5225 16.1054 6.26815 16 6.00293 16L6.00292 16Z" fill="#5BA3EC"/>
<path d="M21.0029 14H30.0029C30.2681 14 30.5225 13.8946 30.71 13.7071C30.8976 13.5196 31.0029 13.2652 31.0029 13C31.0029 12.7348 30.8976 12.4804 30.71 12.2929C30.5225 12.1054 30.2681 12 30.0029 12H21.0029C20.7377 12 20.4834 12.1054 20.2958 12.2929C20.1083 12.4804 20.0029 12.7348 20.0029 13C20.0029 13.2652 20.1083 13.5196 20.2958 13.7071C20.4834 13.8946 20.7377 14 21.0029 14Z" fill="#5BA3EC"/>
<path d="M30.0029 16H21.0029C20.7377 16 20.4834 16.1054 20.2958 16.2929C20.1083 16.4804 20.0029 16.7348 20.0029 17C20.0029 17.2652 20.1083 17.5196 20.2958 17.7071C20.4834 17.8946 20.7377 18 21.0029 18H30.0029C30.2681 18 30.5225 17.8946 30.71 17.7071C30.8976 17.5196 31.0029 17.2652 31.0029 17C31.0029 16.7348 30.8976 16.4804 30.71 16.2929C30.5225 16.1054 30.2681 16 30.0029 16Z" fill="#5BA3EC"/>
<path d="M30.0029 20H9.00293C8.73771 20 8.48336 20.1054 8.29582 20.2929C8.10829 20.4804 8.00293 20.7348 8.00293 21C8.00293 21.2652 8.10829 21.5196 8.29582 21.7071C8.48336 21.8946 8.73771 22 9.00293 22H30.0029C30.2681 22 30.5225 21.8946 30.71 21.7071C30.8976 21.5196 31.0029 21.2652 31.0029 21C31.0029 20.7348 30.8976 20.4804 30.71 20.2929C30.5225 20.1054 30.2681 20 30.0029 20Z" fill="#5BA3EC"/>
<path d="M30.0029 24H9.00293C8.73771 24 8.48336 24.1054 8.29582 24.2929C8.10829 24.4804 8.00293 24.7348 8.00293 25C8.00293 25.2652 8.10829 25.5196 8.29582 25.7071C8.48336 25.8946 8.73771 26 9.00293 26H30.0029C30.2681 26 30.5225 25.8946 30.71 25.7071C30.8976 25.5196 31.0029 25.2652 31.0029 25C31.0029 24.7348 30.8976 24.4804 30.71 24.2929C30.5225 24.1054 30.2681 24 30.0029 24Z" fill="#5BA3EC"/>
</svg>
