<?xml version="1.0" encoding="utf-8"?>
<!-- Generator: Adobe Illustrator 24.0.0, SVG Export Plug-In . SVG Version: 6.00 Build 0)  -->
<svg version="1.1" id="Layer_1" xmlns="http://www.w3.org/2000/svg" xmlns:xlink="http://www.w3.org/1999/xlink" x="0px" y="0px"
	 viewBox="0 0 504.1 504.1" style="enable-background:new 0 0 504.1 504.1;" xml:space="preserve">
<style type="text/css">
	.st0{fill:#00BF00;}
	.st1{fill:#FFFFFF;}
</style>
<circle class="st0" cx="252.1" cy="252.1" r="252.1"/>
<g id="Page-1">
	<g id="_x30_03---Call" transform="translate(-1)">
		<path id="Shape" class="st1" d="M229.3,275.9c-26.4-26.4-32.4-52.9-33.8-63.5c-0.4-2.9,0.6-5.9,2.7-7.9l21.4-21.4
			c3.1-3.1,3.7-8,1.3-11.8l-34.1-52.9c-2.6-4.2-8-5.7-12.4-3.5l-54.7,25.8c-3.6,1.8-5.7,5.5-5.3,9.5c2.9,27.2,14.7,94.1,80.5,159.9
			s132.7,77.6,159.9,80.5c4,0.4,7.7-1.7,9.5-5.3l25.8-54.7c2.2-4.4,0.7-9.7-3.5-12.4l-52.9-34.1c-3.8-2.4-8.7-1.8-11.8,1.3
			l-21.4,21.4c-2.1,2.1-5,3.1-7.9,2.7C282.1,308.3,255.7,302.3,229.3,275.9L229.3,275.9z"/>
		<path id="Shape_1_" class="st1" d="M334.3,261.6c-5.3,0-9.6-4.3-9.6-9.6c0-39.5-32.1-71.6-71.6-71.6c-5.3,0-9.6-4.3-9.6-9.6
			s4.3-9.6,9.6-9.6c50.1,0.1,90.7,40.6,90.7,90.7C343.8,257.3,339.5,261.6,334.3,261.6z"/>
		<path id="Shape_2_" class="st1" d="M382,261.6c-5.3,0-9.6-4.3-9.6-9.6c-0.1-65.9-53.5-119.3-119.4-119.4c-5.3,0-9.6-4.3-9.6-9.6
			c0-5.3,4.3-9.6,9.6-9.6c76.5,0.1,138.4,62,138.5,138.5c0,2.5-1,5-2.8,6.8C387,260.6,384.5,261.6,382,261.6z"/>
	</g>
</g>
</svg>
