<svg width="24" height="24" viewBox="0 0 24 24" fill="none" xmlns="http://www.w3.org/2000/svg">
<path d="M20.7804 12.5303L16.844 16.4678C16.7391 16.5727 16.6054 16.6441 16.4599 16.6731C16.3144 16.7021 16.1636 16.6872 16.0266 16.6305C15.8895 16.5737 15.7724 16.4776 15.6899 16.3542C15.6075 16.2309 15.5635 16.0859 15.5635 15.9375V12.75H9.75C9.55109 12.75 9.36032 12.671 9.21967 12.5303C9.07902 12.3897 9 12.1989 9 12C9 11.8011 9.07902 11.6103 9.21967 11.4697C9.36032 11.329 9.55109 11.25 9.75 11.25H15.5635V8.0625C15.5635 7.91415 15.6075 7.76913 15.6899 7.64578C15.7724 7.52244 15.8895 7.4263 16.0266 7.36954C16.1636 7.31278 16.3144 7.29794 16.4599 7.3269C16.6054 7.35585 16.7391 7.42731 16.844 7.53223L20.7804 11.4697C20.921 11.6104 21 11.8011 21 12C21 12.1989 20.921 12.3896 20.7804 12.5303ZM9.75 19.5H4.5V4.5H9.75C9.94891 4.5 10.1397 4.42098 10.2803 4.28033C10.421 4.13968 10.5 3.94891 10.5 3.75C10.5 3.55109 10.421 3.36032 10.2803 3.21967C10.1397 3.07902 9.94891 3 9.75 3H4.5C4.10231 3.00045 3.72105 3.15864 3.43984 3.43984C3.15864 3.72105 3.00045 4.10231 3 4.5V19.5C3.00045 19.8977 3.15864 20.279 3.43984 20.5602C3.72105 20.8414 4.10231 20.9995 4.5 21H9.75C9.94891 21 10.1397 20.921 10.2803 20.7803C10.421 20.6397 10.5 20.4489 10.5 20.25C10.5 20.0511 10.421 19.8603 10.2803 19.7197C10.1397 19.579 9.94891 19.5 9.75 19.5Z" fill="#FD3F42"/>
</svg>
