<svg id="Layer_1" data-name="Layer 1" xmlns="http://www.w3.org/2000/svg" viewBox="0 0 199.83 202.9"><defs><style>.cls-1{fill:#0fa7e1;}.cls-2{fill:#0faeea;}.cls-3{fill:#10afeb;}.cls-4{fill:#fdfefe;}.cls-5{fill:#f9fcfd;}.cls-6{fill:#fbfdfe;}.cls-7{fill:#08a5e0;}.cls-8{fill:#0aa6e0;}.cls-9{fill:#02a3e0;}.cls-10{fill:#00a2df;}.cls-11{fill:#05a3e0;}.cls-12{fill:#04a3e0;}.cls-13{fill:#07a4e0;}.cls-14{fill:#02a3df;}.cls-15{fill:#04a4e0;}.cls-16{fill:#05a4e0;}.cls-17{fill:#03a3e0;}.cls-18{fill:#10a8e1;}.cls-19{fill:#11a8e1;}.cls-20{fill:#06a4e0;}</style></defs><title>zalo</title><path class="cls-1" d="M199.91,98v9a4.64,4.64,0,0,0,0,6v3a8.37,8.37,0,0,0-.88,4.31c-.6,19.95-10.32,35.8-22.92,50.16-13.76,15.68-31.06,25.81-51.19,31.23-7.09,1.91-14.37,1.9-21.53,2-14.32.29-28.54-.63-42-6.58C34,185.09,14.64,165.41,3.82,137.44,1.87,132.39,1.7,127.06,1.1,121.8a21.52,21.52,0,0,0-1-5.8v-3a3.52,3.52,0,0,0,0-5V89A10.56,10.56,0,0,0,1,84.22C1.46,65.93,10.07,51,21.18,37.5,35.41,20.26,53.53,8.3,75.55,3.32a109.55,109.55,0,0,1,37.66-1.47c40.94,5.07,67.48,28.59,83,65.85,3,7.13,2,15,3.74,22.32v2A4.66,4.66,0,0,0,199.91,98Z" transform="translate(-0.09 -0.89)"/><path class="cls-2" d="M199.91,98c-2.79-2-2.83-4,0-6Z" transform="translate(-0.09 -0.89)"/><path class="cls-2" d="M199.91,113c-2.83-2-2.79-4,0-6Z" transform="translate(-0.09 -0.89)"/><path class="cls-3" d="M.09,108c2.61,1.66,2.64,3.33,0,5Z" transform="translate(-0.09 -0.89)"/><path class="cls-4" d="M50.06,79.09c-5.47,2.9-6,6-2,10.69.45-.31.69-.19.71.35,5.24,2,10.8,0,17,1.37-4.54,6.19-8.82,12-13.11,17.86-2.16,3-4.56,5.74-6.49,8.83-2.84,4.54-.91,8.53,4.39,8.72,11,.4,22,.67,32.9-.34,3.44-.32,2.94.94,2.18,2.88-1.06,2.68-3.36,3.5-6,3.53-5.49,0-11,.42-16.47,0-7.17-.52-13.54.68-18.86,5.86a6.26,6.26,0,0,1-3.9,2c-1.55-1.51-.74-3.23-.42-4.9.76-3.77-2-3-4-3-4.15,0-8.46.49-10.81-4.17-1.18-1.38-1.06-3.06-1.07-4.71q0-21.54,0-43.08c0-1.62-.22-3.34,1.2-4.62,1.55-2.73,4.22-3.61,7-4.24,1-1,2.18-.62,3.3-.62q20.4,0,40.8,0c1.11,0,2.34-.36,3.29.64,3.07,1.19,6.5,2.06,6.21,6.48-.2.27-.41.75-.62.75C73.56,79.35,61.8,80.06,50.06,79.09Z" transform="translate(-0.09 -0.89)"/><path class="cls-4" d="M89.15,106.28A64.34,64.34,0,0,1,92,98.35c3.62-7.13,11.1-10,19.12-7.21,2.84,1,5.41,1.44,8.12,0,.52-.76,1-.71,1.59,0a8.45,8.45,0,0,1,3.67,7.27c0,7.63,0,15.27-.12,22.9,0,4-2.33,5.4-5.9,4.62a16.75,16.75,0,0,0-9.61.8c-5.7,2-11.78-.87-15.77-6.36-2.11-2.92-2.81-6.32-3.94-9.59A3.66,3.66,0,0,1,89.15,106.28Z" transform="translate(-0.09 -0.89)"/><path class="cls-4" d="M142.1,104.31Q148.84,87,163.34,90.57c8.7,2.18,14,9.84,13.55,19.5a18.5,18.5,0,0,1-15.83,17.77C153,128.91,146,124,142.8,115a13.54,13.54,0,0,0-.66-1.32Q138.26,109,142.1,104.31Z" transform="translate(-0.09 -0.89)"/><path class="cls-5" d="M138.75,123.6a9.08,9.08,0,0,1-4.07,3.23c-.47.79-.93.81-1.38,0-3.24-.75-4.5-3.18-5.17-6.1-1.36-2.49-.57-5.18-.61-7.77-.12-9-.08-17.9,0-26.85,0-1.6-.59-3.33.61-4.79.88-2.26,1.08-5,4.25-5.56s5.1.81,6.57,3.34a3.17,3.17,0,0,1,.93,2.23c-.33,13.21,1.3,26.43,0,39.64A3.79,3.79,0,0,1,138.75,123.6Z" transform="translate(-0.09 -0.89)"/><path class="cls-6" d="M86,88.84c0,7.57-.05,15.14,0,22.71,0,2.19-.9,2.9-2.94,2.88-5.45-.06-10.89,0-17.52,0l19.35-26Z" transform="translate(-0.09 -0.89)"/><path class="cls-7" d="M25.28,76.42l-.14,52.41c-2.69-.79-2-3.13-2-4.92q-.12-21.42,0-42.86C23.14,79.36,22.29,76.89,25.28,76.42Z" transform="translate(-0.09 -0.89)"/><path class="cls-8" d="M138.75,123.6q.09-22.25.19-44.51c3.08-.7,1.84,2,1.89,2.89.24,4.48.18,9,.12,13.47a26.54,26.54,0,0,0,1.15,8.86q0,4.66,0,9.33c-.41,2.28-.76,4.58-1.25,6.84C140.61,121.77,141.15,123.73,138.75,123.6Z" transform="translate(-0.09 -0.89)"/><path class="cls-9" d="M79.72,72.2c-15.8.37-31.6.42-47.39,0-3.55-1.25-.84-1.11.27-1.11q11.7-.06,23.4,0c8,0,15.93.08,23.9.13.11,0,.34.26.32.29A7.25,7.25,0,0,1,79.72,72.2Z" transform="translate(-0.09 -0.89)"/><path class="cls-10" d="M128.12,81.31q.63,19.71,0,39.41c-.68.87-1.09.52-1.1-.34q0-19.36,0-38.73c0-.28.24-.56.37-.84Z" transform="translate(-0.09 -0.89)"/><path class="cls-11" d="M50.06,79.09C62,77.94,74,78.72,85.93,78.68c-.41.29-.8.81-1.22.83C73.15,80.1,61.59,80.88,50.06,79.09Z" transform="translate(-0.09 -0.89)"/><path class="cls-12" d="M83.54,115.83H68.18v-.46H84Z" transform="translate(-0.09 -0.89)"/><path class="cls-13" d="M48.8,90.13a.61.61,0,0,1-.71-.35c5.28-1.52,10.59-.46,15.9.35Z" transform="translate(-0.09 -0.89)"/><path class="cls-14" d="M89.15,106.28v4.47c-2.16-1.41-1-3.27-.69-5a1.74,1.74,0,0,1,.4.15A2.32,2.32,0,0,1,89.15,106.28Z" transform="translate(-0.09 -0.89)"/><path class="cls-7" d="M33.07,134.15h3.78c.11.12.21.24.32.35C35.83,135.52,34.43,134.65,33.07,134.15Z" transform="translate(-0.09 -0.89)"/><path class="cls-15" d="M120.82,91.11l-1.59,0-1.36-.37c.08-.21.17-.61.24-.6C119.1,90.21,120.42,89.39,120.82,91.11Z" transform="translate(-0.09 -0.89)"/><path class="cls-16" d="M133.3,126.82h1.38c.33.24,1,.6.42.89a2.84,2.84,0,0,1-2.27,0C132.25,127.41,133,127.05,133.3,126.82Z" transform="translate(-0.09 -0.89)"/><path class="cls-17" d="M106.16,128.79h-2.25C104.36,127.5,105.29,128.25,106.16,128.79Z" transform="translate(-0.09 -0.89)"/><path class="cls-16" d="M134.5,74.72c-.61,0-1.05.11-1.49.1-.07,0-.12-.39-.18-.6a3.21,3.21,0,0,1,.92-.07C134,74.19,134.15,74.44,134.5,74.72Z" transform="translate(-0.09 -0.89)"/><path class="cls-15" d="M39.94,136l.42,4.9C38.79,139.39,38.88,137.74,39.94,136Z" transform="translate(-0.09 -0.89)"/><path class="cls-18" d="M100.93,105c4.26-6.83,7.71-6.82,12,0,0,2.66,0,5.32,0,8-3.38,5.65-8.29,5.63-11.84,0C101,110.31,101,107.64,100.93,105Z" transform="translate(-0.09 -0.89)"/><path class="cls-13" d="M100.93,105a8.23,8.23,0,0,1,.2,8A8.1,8.1,0,0,1,100.93,105Z" transform="translate(-0.09 -0.89)"/><path class="cls-16" d="M113,113a8.18,8.18,0,0,1,0-8A8.11,8.11,0,0,1,113,113Z" transform="translate(-0.09 -0.89)"/><path class="cls-19" d="M166,113c-1.16,4.09-4.33,5-7.79,4.06s-5.07-3.76-5.22-7.43c-.16-4,.95-7.38,4.8-8.75s6.65.34,8.15,4.12C165.8,107.69,166,110.35,166,113Z" transform="translate(-0.09 -0.89)"/><path class="cls-20" d="M166,113a8,8,0,0,1-.06-8A8.27,8.27,0,0,1,166,113Z" transform="translate(-0.09 -0.89)"/></svg>