<svg style="fill: #67757C" id="Layer_1" data-name="Layer 1" xmlns="http://www.w3.org/2000/svg" viewBox="0 0 500 500"><path d="M250,131.26C138,131.26,47.24,250,47.24,250s42.52,55.62,105.25,90.72l22.65-35.33a93.16,93.16,0,0,1,93.94-146.55l15.34-23.94A168,168,0,0,0,250,131.26Zm80.55,19.31-19,29.58a93.14,93.14,0,0,1-99.35,155L196.29,360A176.16,176.16,0,0,0,250,368.75C362,368.75,452.76,250,452.76,250S402.46,184.2,330.55,150.57Z"/><path d="M257.36,177.12l-70.5,110A73.22,73.22,0,0,1,250,176.75,71.68,71.68,0,0,1,257.36,177.12Z"/><path d="M323.25,250a73.25,73.25,0,0,1-100.13,68.15l77.56-121A73.06,73.06,0,0,1,323.25,250Z"/><path d="M351.7,117.57l-21.15,33-19,29.58-10.9,17-77.56,121-10.89,17L196.29,360,176.81,390.4a3.4,3.4,0,0,1-4.71,1l-15.22-9.75L154.25,380a3.4,3.4,0,0,1-1-4.71l16.49-25.72L188.63,320l10.9-17L277.14,182,288,165l16-24.88,24.13-37.64A3.39,3.39,0,0,1,331.7,101a3.2,3.2,0,0,1,1.12.46l17.85,11.44A3.4,3.4,0,0,1,351.7,117.57Z"/></svg>